<svg xmlns="http://www.w3.org/2000/svg" viewBox="0 0 399 399"><defs><style>.cls-1{fill:#1bb38f;}.cls-2{fill:#333d4a;}.cls-3{fill:#f0f1f4;}.cls-4{fill:#b4bcca;}</style></defs><title>IconAsset 1</title><g id="Layer_2" data-name="Layer 2"><g id="Layer_1-2" data-name="Layer 1"><path d="M199.5,20A179.51,179.51,0,0,1,326.43,326.43,179.51,179.51,0,0,1,72.57,72.57,178.35,178.35,0,0,1,199.5,20m0-20C89.32,0,0,89.32,0,199.5S89.32,399,199.5,399,399,309.68,399,199.5,309.68,0,199.5,0Z"/><circle class="cls-1" cx="199.5" cy="199.5" r="189.5"/><path class="cls-2" d="M199.5,20A179.51,179.51,0,0,1,326.43,326.43,179.51,179.51,0,0,1,72.57,72.57,178.35,178.35,0,0,1,199.5,20m0-20C89.32,0,0,89.32,0,199.5S89.32,399,199.5,399,399,309.68,399,199.5,309.68,0,199.5,0Z"/><path class="cls-3" d="M296.78,217.19a35.56,35.56,0,1,0-.57,6.37h-6.35a29.38,29.38,0,0,1-58.05-6.22h65A.76.76,0,0,0,296.78,217.19Zm-64.34-6.07a29.38,29.38,0,0,1,57.49,0Z"/><path class="cls-3" d="M223.48,250.16l-12.22,10.06q-2.14-2.25-15.23-17t-40.3-45.89l.1-.88a49.63,49.63,0,0,0,9.86-4.25,51,51,0,0,0,10.36-7.08,32.08,32.08,0,0,0,6.3-8.21q2.68-4.89,2.69-13.1a21.37,21.37,0,0,0-4-12.95,22.82,22.82,0,0,0-10.89-8,41.93,41.93,0,0,0-11.91-2.59q-6.25-.43-11.53-.44c-2.34,0-4.13,0-5.37,0s-2.14.05-2.73.05q-.19,18.57-.24,32.74t0,20q0,13.4.14,36.36t.25,28.83H122.63q.11-5.87.3-22.7t.19-42V175.26q0-13.19-.49-48c.65,0,3.9-.06,9.76-.2s11.25-.19,16.19-.19a138.22,138.22,0,0,1,16.48,1,57.74,57.74,0,0,1,15.61,4.2A35.2,35.2,0,0,1,196,144a31.41,31.41,0,0,1,5.66,18.69q0,13.86-8.53,23.08T177,199.52V200q13.38,15.65,29.35,32.26T223.48,250.16Z"/><path class="cls-2" d="M106.57,107.57a130,130,0,0,0,0,183.85,131.86,131.86,0,0,0,15,12.92A130.1,130.1,0,0,0,323.88,234l2.06-7.54,33.33,10.59-2.08,7c-.11.36-.21.72-.32,1.07-10.51,35-30.42,64.62-57.61,85.74A156.81,156.81,0,0,1,265,351.13h0A167.72,167.72,0,0,1,198.5,364.5c-91,0-165-74-165-165s74-165,165-165c48.72,0,91.8,19.58,122,53.12,17.31,19.23,30.36,43.06,37.79,70.41l2.09,7.72h0l-34.34,7-1.81-6.84A130.26,130.26,0,0,0,151.65,78.16l-.05,0A129.59,129.59,0,0,0,106.57,107.57Z"/><path class="cls-4" d="M210.29,361.08A154.44,154.44,0,0,0,265,351.14,167.72,167.72,0,0,1,198.5,364.5c-91,0-165-74-165-165s74-165,165-165c48.72,0,91.8,19.58,122,53.12a154.86,154.86,0,0,0-221.07.76,161.81,161.81,0,0,0,0,225.91A154.36,154.36,0,0,0,210.29,361.08Z"/><path class="cls-4" d="M325.94,226.48l33.33,10.59-2.08,7c-.11.36-.21.72-.32,1.07a139.76,139.76,0,0,1-49.13,64.53c-25.26,18.24-56.38,27.88-90,27.88a153.35,153.35,0,0,1-96.14-33.25A130.1,130.1,0,0,0,323.88,234Z"/><path class="cls-4" d="M198.5,69.5a129.92,129.92,0,0,0-46.85,8.66,155.52,155.52,0,0,1,66.09-14.57c68.33,0,124.24,40.09,142.55,102.17l-34.34,7-1.81-6.84A130.11,130.11,0,0,0,198.5,69.5Z"/></g></g></svg>